<?xml version="1.0" encoding="utf-8"?>
<!-- Generator: Adobe Illustrator 17.0.0, SVG Export Plug-In . SVG Version: 6.00 Build 0)  -->
<!DOCTYPE svg PUBLIC "-//W3C//DTD SVG 1.1//EN" "http://www.w3.org/Graphics/SVG/1.1/DTD/svg11.dtd">
<svg version="1.1" id="Layer_1" xmlns="http://www.w3.org/2000/svg" xmlns:xlink="http://www.w3.org/1999/xlink" x="0px" y="0px"
	 width="566.93px" height="566.93px" viewBox="0 0 566.93 566.93" enable-background="new 0 0 566.93 566.93" xml:space="preserve">
<g>
	<path fill="#333333" d="M837.112,633.836v-23.901h23.901v23.901L837.112,633.836L837.112,633.836z M861.013,609.935v-71.703h47.802
		v23.901h-23.901v47.802H861.013z M861.013,705.539v-71.703h23.901v47.802h23.901v23.901L861.013,705.539L861.013,705.539z"/>
	<path fill="#333333" d="M763.902,609.935v-47.802h-23.901v-23.901h47.802v71.703H763.902L763.902,609.935z M740.001,705.539
		v-23.901h23.901v-47.802h23.901v71.703H740.001z M787.803,633.836v-23.901h23.901v23.901L787.803,633.836L787.803,633.836z"/>
</g>
<g>
	<g>
		<path fill="#333333" d="M755.316,786.134c-2.587,0.301-3.878,0.46-6.46,0.789c-0.015-4.205-0.022-6.307-0.037-10.514
			c8.109-1.189,16.222-2.218,24.37-3.09c0.015,4.403,0.022,6.606,0.037,11.009c-2.593,0.22-3.889,0.338-6.48,0.589
			c0.055,15.483,0.109,30.965,0.161,46.448c2.589-0.046,3.882-0.068,6.471-0.107c0.015,4.403,0.022,6.606,0.037,11.009
			c-8.122-0.007-16.242-0.009-24.363-0.009c-0.015-4.205-0.022-6.307-0.037-10.514c2.587-0.063,3.88-0.094,6.466-0.15
			c-0.02-5.55-0.041-11.101-0.061-16.649c-7.694,0.451-15.384,0.966-23.07,1.542c0.013,5.239,0.028,10.477,0.041,15.716
			c2.584-0.078,3.878-0.118,6.462-0.19c0.013,4.1,0.02,6.15,0.033,10.25c-8.148,0.007-16.296,0.017-24.444,0.031
			c0-3.793,0-5.688,0-9.483c2.615-0.098,3.924-0.144,6.541-0.235c-0.017-13.794-0.033-27.587-0.048-41.379
			c-2.6,0.462-3.897,0.702-6.493,1.195c0-3.793,0-5.688,0-9.481c8.054-1.775,16.126-3.387,24.243-4.844
			c0.013,4.1,0.02,6.15,0.031,10.25c-2.578,0.375-3.865,0.571-6.438,0.977c0.013,5.062,0.026,10.124,0.039,15.186
			c7.677-0.837,15.36-1.59,23.055-2.253C755.355,796.86,755.335,791.497,755.316,786.134z"/>
		<path fill="#333333" d="M813.239,835.135c-2.883,5.348-8.48,8.521-14.444,8.558c-13.851,0.089-22.839-14.545-23.105-27.005
			c-0.281-13.166,9.326-28.274,23.511-28.819c6.026-0.231,11.271,3.409,14.013,8.65c-0.002-3.042-0.002-4.562-0.004-7.603
			c5.374-0.074,10.748-0.081,16.119-0.022c-0.004,4.567-0.004,6.85-0.009,11.419c-2.259-0.022-3.389-0.028-5.649-0.035
			c-0.002,10.22-0.004,20.442-0.007,30.664c2.253,0.007,3.38,0.011,5.636,0.022c-0.004,4.567-0.004,6.853-0.009,11.419
			c-5.35-0.017-10.7-0.033-16.047-0.048C813.241,839.456,813.241,838.016,813.239,835.135z M813.396,815.326
			c-0.009-7.212-5.441-16.076-13.583-15.651c-8.115,0.423-13.537,9.267-13.524,16.686c0.015,7.162,5.688,15.345,13.411,15.511
			C808.138,832.054,813.405,822.752,813.396,815.326z"/>
		<path fill="#333333" d="M877.25,825.269c-2.617,9.943-11.825,18.438-22.331,18.597c-14.617,0.22-23.681-15.459-23.668-28.208
			c0.013-11.936,8.401-28.588,22.717-27.602c5.123,0.353,9.801,3.208,12.87,7.326c0.007-1.991,0.009-2.988,0.015-4.979
			c3.537,0.244,5.302,0.38,8.835,0.674c-0.02,5.721-0.041,11.443-0.061,17.166c-3.834-0.218-5.751-0.318-9.587-0.499
			c-1.256-2.209-2.938-4.085-4.783-5.42c-1.9-1.376-4.124-2.168-6.394-2.257c-8.22-0.325-13.328,8.49-13.341,15.722
			c-0.013,7.391,5.417,16.119,13.509,16.215c4.615,0.055,8.92-2.794,10.783-7.066C870.391,825.055,872.677,825.12,877.25,825.269z"
			/>
		<path fill="#333333" d="M908.128,803.802c-1.843-0.203-2.763-0.301-4.606-0.493c0.011-3.723,0.017-5.583,0.028-9.306
			c7.337,0.94,14.662,1.985,21.962,3.182c-0.002,3.9-0.002,5.849-0.004,9.751c-2.17-0.281-3.254-0.417-5.426-0.68
			c-4.194,3.71-8.298,7.52-12.327,11.411c4.29,5.143,8.632,10.231,13.046,15.267c2.818,0.107,4.227,0.161,7.042,0.277
			c0,3.869,0,5.804,0,9.672c-8.148-0.052-16.296-0.105-24.444-0.153c0.013-4.161,0.02-6.24,0.031-10.401
			c1.511,0.048,2.266,0.072,3.777,0.122c-3.59-4.397-7.125-8.839-10.617-13.315c-0.015,4.327-0.028,8.654-0.044,12.983
			c1.612,0.048,2.419,0.072,4.03,0.12c-0.013,4.19-0.02,6.283-0.033,10.475c-6.722-0.037-13.441-0.076-20.163-0.109
			c0.015-4.364,0.024-6.545,0.039-10.909c2.351,0.055,3.529,0.085,5.88,0.144c0.057-15.341,0.111-30.684,0.166-46.025
			c-2.351-0.262-3.527-0.388-5.88-0.626c0.015-4.364,0.024-6.545,0.039-10.909c5.383,0.643,10.752,1.378,16.111,2.201
			c-0.044,12.953-0.089,25.903-0.133,38.856C900.381,811.422,904.217,807.575,908.128,803.802z"/>
	</g>
</g>
<g>
	<path fill="#333333" d="M769.361,751.888H758.6c-0.783,0-2.142,0-1.88-1.566c0.262-1.62,1.566-1.62,2.403-1.62h1.149l4.283-25.541
		h-1.149c-0.783,0-2.142,0-1.88-1.568c0.262-1.618,1.566-1.618,2.403-1.618h10.761c6.946,0,10.133,7.834,8.724,16.191
		C781.999,744.576,776.202,751.888,769.361,751.888z M773.173,723.161h-5.014l-4.283,25.541h5.014
		c5.797,0,9.923-6.425,10.916-12.536C780.85,730.107,779.075,723.161,773.173,723.161z"/>
	<path fill="#333333" d="M806.498,751.888h-18.856c-0.731,0-2.194,0-1.932-1.566c0.262-1.62,1.516-1.62,2.977-1.62l3.082-18.281
		c-1.463,0-2.715,0-2.454-1.62c0.262-1.566,1.723-1.566,2.454-1.566h17.759c1.775,0,2.089,0.471,1.828,2.194l-0.419,2.558
		c-0.157,0.94-0.366,2.194-2.194,2.194c-1.775,0-1.566-1.306-1.409-2.194l0.262-1.566h-12.222l-1.202,7.103h6.477
		c0.157-0.992,0.366-2.246,2.194-2.246c1.775,0,1.566,1.306,1.411,2.194l-0.523,3.291c-0.157,0.888-0.366,2.194-2.142,2.194
		c-1.828,0-1.62-1.252-1.463-2.246h-6.477l-1.359,7.991h13.319l0.366-2.194c0.157-0.94,0.366-2.194,2.194-2.194
		c1.775,0,1.566,1.306,1.409,2.194l-0.521,3.186C808.744,751.47,808.221,751.888,806.498,751.888z"/>
	<path fill="#333333" d="M837.315,730.421l-10.028,19.797c-0.992,1.985-1.932,1.985-3.396,1.985c-1.045,0-2.351,0-2.611-1.566
		l-0.469-2.558l-2.977-17.655c-0.992,0-2.403,0-2.142-1.62c0.262-1.566,1.775-1.566,2.56-1.566h3.498c0.835,0,2.299,0,2.037,1.62
		c-0.157,0.888-1.045,1.62-2.194,1.62l3.029,17.759l8.879-17.812c-1.88,0-1.671-1.306-1.62-1.568c0.262-1.62,1.723-1.62,2.56-1.62
		h3.498c0.783,0,2.299,0,2.037,1.566C839.718,730.421,838.309,730.421,837.315,730.421z"/>
	<path fill="#333333" d="M888.277,723.161h-30.224l-4.283,25.541h2.715c0.835,0,2.089,0,1.828,1.62
		c-0.262,1.566-1.566,1.566-2.351,1.566h-9.036c-0.835,0-2.089,0-1.828-1.62c0.262-1.568,1.566-1.568,2.351-1.568h2.715
		l4.283-25.541h-64.894l0.236-1.045c0.314-1.723,0.783-2.142,2.508-2.142h98.016c1.775,0,1.985,0.521,1.723,2.142l-0.172,1.045
		L888.277,723.161z"/>
	<path fill="#333333" d="M878.79,752.305c-9.454,0-10.237-1.202-8.357-12.745c1.932-11.596,3.186-12.745,12.588-12.745
		c9.402,0,10.185,1.202,8.253,12.745C889.393,751.103,888.192,752.305,878.79,752.305z M882.447,730.003
		c-6.163,0-6.946,0.888-8.305,9.193c-1.516,9.088-0.94,9.923,5.171,9.923c6.059,0,6.949-0.888,8.462-9.923
		C889.132,730.838,888.663,730.003,882.447,730.003z"/>
</g>
<path fill="#414141" d="M822.109,504.491L822.109,504.491l130.85,27.231v153.488c-0.632,4.674-6.368,41.307-34.088,75.251
	c-1.354,1.66-2.8,3.302-4.327,4.929c8.213,1.134,16.407,2.423,24.575,3.858c30.147-39.591,34.928-80.429,35.124-82.213l0.063-0.578
	V514.362l-152.332-31.704l0,0l0.135,0.028L822.109,504.491z"/>
<path fill="#414141" d="M822.859,877.627v16.226l-0.033,0.007l1.756-0.403c17.186-3.956,33.925-10.364,48.406-18.531
	c6.595-3.721,12.671-7.769,18.093-12.039c-7.95-1.143-15.925-2.089-23.921-2.833C854.237,867.594,838.944,873.74,822.859,877.627z"
	/>
<path fill="#939393" d="M822.046,825.644L822.046,825.644c0.022-0.004,0.044-0.011,0.063-0.015l0,0
	C822.09,825.633,822.068,825.637,822.046,825.644z"/>
<path fill="#4F4E4E" d="M822.859,877.627c-0.015,0.004-0.031,0.009-0.048,0.011l0,0l0,0c-15.541-3.773-29.373-9.745-41.396-17.84
	c-7.52,0.654-15.025,1.485-22.507,2.495c3.904,3.489,8.017,6.735,12.34,9.725c0.757,0.523,1.518,1.038,2.288,1.546
	c13.834,9.14,29.711,15.797,47.503,19.892l1.108,0.255l0.665,0.153l0.017-0.004l0.033-0.007L822.859,877.627L822.859,877.627z"/>
<path fill="#4F4E4E" d="M736.867,764.44c-1.143-1.306-2.27-2.628-3.374-3.978c-23.253-28.474-31.076-59.193-33.34-70.872
	c-0.041-0.216-0.083-0.425-0.12-0.628c-0.342-1.828-0.539-3.117-0.628-3.766V531.613l30.675-6.781l92.027-20.344v-21.805
	l-0.135-0.028l-89.947,19.882l-53.967,11.93v171.987l0.048,0.434l0.015,0.144c0.161,1.479,3.47,29.768,21.746,61.945
	c0.718,1.261,1.457,2.53,2.22,3.801c1.527,2.545,3.149,5.108,4.872,7.679c1.686,2.515,3.47,5.038,5.352,7.557
	C720.477,766.673,728.662,765.484,736.867,764.44z"/>
<g>
	<path fill="#414141" d="M1039.239,72.249c0,0,0.048,2.198,1.123,4.251c1.319,2.493,3.516,3.712,6.741,3.712
		c3.226,0,5.422-1.221,6.741-3.712c1.075-2.052,1.123-4.251,1.123-4.299v-14.46h-15.729
		C1039.239,57.742,1039.239,72.249,1039.239,72.249z"/>
	<polygon fill="#414141" points="1120.573,76.45 1127.46,76.45 1124.04,66.193 	"/>
	<path fill="#414141" d="M1094.578,38.785H950.662v88.053l144.049-31.307l152.197,31.89V38.787h-152.33V38.785z M1025.316,85.684
		c0,0.194-0.196,0.39-0.489,0.39h-5.568c-0.294,0-0.489-0.196-0.489-0.39V72.153h-12.944v13.531c0,0.194-0.196,0.39-0.489,0.39
		h-5.568c-0.292,0-0.489-0.196-0.489-0.39V52.272c0-0.196,0.196-0.39,0.489-0.39h5.568c0.294,0,0.489,0.194,0.489,0.39v13.483
		h12.944V52.272c0-0.196,0.196-0.39,0.489-0.39h5.568c0.292,0,0.489,0.194,0.489,0.39V85.684z M1061.465,72.249
		c0,0.342-0.05,3.664-1.71,6.986c-2.393,4.689-6.839,7.326-12.652,7.326s-10.307-2.589-12.652-7.326
		c-1.662-3.322-1.71-6.643-1.71-6.986V52.27c0-0.196,0.196-0.39,0.441-0.39h27.794c0.294,0,0.489,0.194,0.489,0.39
		C1061.465,52.27,1061.465,72.249,1061.465,72.249z M1106.063,85.684c0,0.194-0.194,0.39-0.489,0.39h-5.568
		c-0.292,0-0.489-0.196-0.489-0.39V66.926l-8.695,17.537c-0.048,0.096-0.294,0.244-0.39,0.244h-5.276
		c-0.146,0-0.39-0.146-0.441-0.244l-9.28-17.975v19.197c0,0.194-0.196,0.39-0.489,0.39h-5.618c-0.292,0-0.438-0.196-0.438-0.39
		v-33.46c0-0.196,0.146-0.39,0.438-0.39h5.716c0.146,0,0.39,0.146,0.441,0.244l12.261,25.107l11.723-25.107
		c0.05-0.096,0.294-0.244,0.441-0.244h5.666c0.294,0,0.489,0.196,0.489,0.39v33.46H1106.063z M1137.425,86.074h-6.059
		c-0.146,0-0.342-0.098-0.39-0.244l-1.418-3.616h-11.088l-1.319,3.616c-0.048,0.146-0.244,0.244-0.441,0.244h-6.009
		c-0.39,0-0.587-0.244-0.441-0.537l13.337-34.389c0.146-0.342,0.733-0.342,0.879,0l13.334,34.389
		C1137.961,85.83,1137.767,86.074,1137.425,86.074z M1170.252,85.684c0,0.194-0.196,0.39-0.489,0.39h-5.618
		c-0.098,0-0.342-0.048-0.39-0.146l-15.729-22.518v22.276c0,0.194-0.196,0.39-0.489,0.39h-5.618c-0.244,0-0.441-0.196-0.441-0.39
		V52.274c0-0.196,0.196-0.39,0.441-0.39h5.666c0.098,0,0.342,0.048,0.39,0.146l15.777,22.518V52.274c0-0.196,0.196-0.39,0.489-0.39
		h5.52c0.292,0,0.489,0.194,0.489,0.39v33.41L1170.252,85.684L1170.252,85.684z M1187.397,86.561
		c-6.056-0.146-10.844-3.664-10.942-10.111c0-0.196,0.196-0.39,0.489-0.39h5.568c0.244,0,0.489,0.196,0.489,0.39
		c0.098,2.491,2.148,3.76,4.397,3.76c2.345,0,4.397-1.564,4.397-3.906c0-2.589-2.395-4.153-4.397-4.251
		c-0.292,0-2.687,0-5.228-1.171c-3.664-1.71-5.714-4.787-5.714-8.89c0-6.595,5.324-10.599,10.942-10.599
		c6.009,0,10.698,4.054,10.796,10.015c0,0.146-0.196,0.342-0.489,0.342h-5.52c-0.244,0-0.489-0.196-0.489-0.342
		c-0.098-2.491-2.002-3.664-4.299-3.664c-2.392,0-4.397,1.418-4.397,4.251c0,2.541,2.148,3.86,4.397,3.86
		c0.244,0,2.687,0,5.178,1.171c3.714,1.71,5.716,5.178,5.716,9.282C1198.291,82.899,1193.015,86.561,1187.397,86.561z"/>
</g>
<g>
	<polygon fill="#414141" points="893.994,247.493 900.509,247.493 897.274,237.787 	"/>
	<polygon fill="#414141" points="754.562,247.493 761.079,247.493 757.844,237.787 	"/>
	<path fill="#414141" d="M780.535,229.977v20.843c3.882,0.185,12.154-0.554,12.154-10.49
		C792.689,231.781,787.514,229.609,780.535,229.977z"/>
	<polygon fill="#414141" points="696.1,247.493 702.616,247.493 699.382,237.787 	"/>
	<path fill="#414141" d="M798.327,210.301H654.413v88.053l144.051-31.307l152.197,31.89v-88.634H798.327V210.301z M712.045,256.598
		h-5.732c-0.137,0-0.323-0.092-0.369-0.231l-1.341-3.42h-10.49l-1.247,3.42c-0.046,0.137-0.231,0.231-0.417,0.231h-5.684
		c-0.369,0-0.554-0.231-0.417-0.508l12.617-32.535c0.137-0.323,0.694-0.323,0.831,0l12.617,32.535
		C712.553,256.367,712.367,256.598,712.045,256.598z M731.039,251.098c2.726,0,5.221-1.11,7.071-2.957
		c0.183-0.137,0.462-0.137,0.648,0l3.651,3.697c0.185,0.137,0.185,0.417,0,0.554c-2.866,2.866-6.885,4.667-11.367,4.667
		c-8.872,0-16.176-6.423-16.176-16.499c0-9.659,6.702-16.776,16.176-16.776c4.482,0,8.503,1.756,11.367,4.667
		c0.185,0.137,0.185,0.414,0,0.554l-3.651,3.651c-0.185,0.14-0.462,0.14-0.648,0c-1.849-1.801-4.344-2.957-7.071-2.957
		c-6.194,0-9.936,4.761-9.936,10.861C721.102,247.076,725.538,251.098,731.039,251.098z M770.507,256.598h-5.732
		c-0.137,0-0.323-0.092-0.369-0.231l-1.341-3.422h-10.49l-1.247,3.42c-0.046,0.137-0.231,0.231-0.417,0.231h-5.684
		c-0.369,0-0.554-0.231-0.417-0.508l12.617-32.535c0.137-0.323,0.694-0.323,0.831,0l12.617,32.535
		C771.015,256.367,770.83,256.598,770.507,256.598z M780.073,256.598h-5.221c-0.277,0-0.462-0.185-0.462-0.369v-31.611
		c0-0.185,0.185-0.369,0.462-0.369h5.221c7.81,0,18.763,1.847,18.763,16.082C798.835,254.055,788.068,256.598,780.073,256.598z
		 M826.795,229.746c0,0.185-0.185,0.369-0.462,0.369h-15.251v7.487h12.617c0.277,0,0.417,0.185,0.417,0.371v5.036
		c0,0.185-0.14,0.371-0.417,0.371h-12.617v7.393h15.251c0.277,0,0.462,0.185,0.462,0.369v5.084c0,0.185-0.185,0.369-0.462,0.369
		h-20.935c-0.231,0-0.417-0.185-0.417-0.369v-31.611c0-0.185,0.185-0.369,0.417-0.369h20.935c0.277,0,0.462,0.185,0.462,0.369
		V229.746z M867.095,256.227c0,0.185-0.185,0.369-0.462,0.369h-5.223c-0.277,0-0.462-0.185-0.462-0.369v-18.209l-8.133,17.099
		c-0.046,0.092-0.277,0.231-0.417,0.231h-4.944c-0.137,0-0.323-0.137-0.369-0.231l-8.735-17.469v18.577
		c0,0.185-0.185,0.369-0.462,0.369h-5.223c-0.277,0-0.462-0.185-0.462-0.369v-31.611c0-0.185,0.185-0.369,0.462-0.369h5.315
		c0.137,0,0.369,0.137,0.417,0.231l11.507,23.801l10.999-23.801c0.046-0.092,0.277-0.231,0.417-0.231h5.315
		c0.277,0,0.462,0.185,0.462,0.369L867.095,256.227L867.095,256.227z M880.638,256.227c0,0.185-0.185,0.369-0.462,0.369h-5.221
		c-0.277,0-0.462-0.185-0.462-0.369v-31.611c0-0.185,0.185-0.369,0.462-0.369h5.221c0.277,0,0.462,0.185,0.462,0.369V256.227z
		 M909.937,256.598h-5.732c-0.137,0-0.323-0.092-0.369-0.231l-1.341-3.42h-10.49l-1.247,3.42c-0.046,0.137-0.231,0.231-0.417,0.231
		h-5.684c-0.369,0-0.554-0.231-0.417-0.508l12.617-32.535c0.137-0.323,0.693-0.323,0.831,0l12.617,32.535
		C910.445,256.367,910.26,256.598,909.937,256.598z"/>
</g>
<g>
	<path fill="#414141" d="M782.116,71.706h-5.06v7.956h5.06c2.161,0,5.55-0.639,5.55-3.88
		C787.667,71.706,783.196,71.706,782.116,71.706z"/>
	<path fill="#414141" d="M787.174,61.637c0-4.076-5.06-3.78-5.06-3.78h-5.06v7.858h5.06
		C783.05,65.713,787.174,65.371,787.174,61.637z"/>
	<polygon fill="#414141" points="749.5,76.275 756.425,76.275 752.987,65.96 	"/>
	<path fill="#414141" d="M765.087,38.785H621.171v88.053L765.22,95.531l152.197,31.89V38.787L765.087,38.785L765.087,38.785z
		 M736.729,85.558c0,0.196-0.196,0.393-0.491,0.393h-17.879c-0.294,0-0.491-0.194-0.491-0.393V51.96
		c0-0.196,0.196-0.393,0.491-0.393h5.55c0.294,0,0.491,0.196,0.491,0.393v27.654h11.838c0.294,0,0.491,0.194,0.491,0.393V85.558z
		 M766.446,85.95h-6.091c-0.148,0-0.345-0.098-0.393-0.244l-1.424-3.633h-11.149l-1.326,3.633c-0.048,0.146-0.244,0.244-0.443,0.244
		h-6.041c-0.393,0-0.589-0.244-0.443-0.541l13.411-34.579c0.146-0.345,0.737-0.345,0.883,0l13.408,34.579
		C766.985,85.706,766.791,85.95,766.446,85.95z M794.148,75.979c0,9.531-9.677,9.971-12.034,9.971h-11.101
		c-0.246,0-0.443-0.194-0.443-0.393V51.96c0-0.196,0.196-0.393,0.443-0.393h11.101c0,0,11.592-0.294,11.592,9.725
		c0,3.928-2.161,6.139-4.715,7.169C794.345,70.332,794.148,75.979,794.148,75.979z M809.869,86.443
		c-6.041-0.146-10.807-3.636-10.905-10.117c0-0.196,0.196-0.345,0.491-0.345h5.551c0.246,0,0.491,0.148,0.491,0.345
		c0.098,2.554,2.111,3.782,4.371,3.782c2.307,0,4.371-1.472,4.371-3.88c0-2.554-2.408-4.174-4.371-4.272
		c-0.294,0-2.702,0-5.208-1.13c-3.633-1.719-5.697-5.06-5.697-9.134c0-6.582,5.254-10.56,10.905-10.56
		c5.991,0,10.658,4.028,10.756,9.921c0,0.196-0.196,0.393-0.491,0.393h-5.5c-0.246,0-0.491-0.196-0.491-0.393
		c-0.098-2.456-2.013-3.633-4.272-3.633c-2.408,0-4.371,1.374-4.371,4.275c0,2.504,2.111,4.124,4.371,4.124
		c0.246,0,2.652,0,5.108,1.13c3.734,1.721,5.747,5.256,5.747,9.284C820.723,82.855,815.467,86.443,809.869,86.443z"/>
</g>
<g>
	<path fill="#414141" d="M881.276,426.409h-4.717v7.492h4.717c1.341,0,4.809-0.185,4.809-3.745
		C886.085,426.596,882.249,426.409,881.276,426.409z"/>
	<polygon fill="#414141" points="760.955,443.795 767.474,443.795 764.238,434.086 	"/>
	<path fill="#414141" d="M848.444,425.946c-6.521,0-9.758,5.411-9.758,10.82c0,5.363,3.237,10.726,9.758,10.726
		c6.427,0,9.71-5.363,9.71-10.726C858.156,431.357,854.871,425.946,848.444,425.946z"/>
	<path fill="#414141" d="M821.976,406.052H678.06v88.053l144.049-31.307l152.197,31.89v-88.634h-152.33V406.052z M749.394,426.409
		c0,0.188-0.185,0.371-0.462,0.371h-15.26v7.121h12.623c0.277,0,0.417,0.185,0.417,0.371v5.18c0,0.183-0.14,0.369-0.417,0.369
		h-12.623v12.717c0,0.185-0.137,0.369-0.417,0.369h-5.271c-0.231,0-0.414-0.183-0.414-0.369v-31.351
		c0-0.188,0.185-0.371,0.414-0.371h20.948c0.277,0,0.462,0.183,0.462,0.371V426.409z M776.909,452.903h-5.734
		c-0.137,0-0.323-0.092-0.369-0.231l-1.341-3.422h-10.497l-1.25,3.422c-0.046,0.137-0.231,0.231-0.417,0.231h-5.688
		c-0.369,0-0.554-0.231-0.417-0.508l12.623-32.553c0.137-0.323,0.694-0.323,0.833,0l12.623,32.553
		C777.415,452.674,777.232,452.903,776.909,452.903z M795.914,447.402c2.728,0,5.226-1.11,7.075-2.96c0.185-0.14,0.462-0.14,0.648,0
		l3.653,3.699c0.185,0.137,0.185,0.417,0,0.556c-2.866,2.868-6.89,4.672-11.374,4.672c-8.879,0-16.185-6.427-16.185-16.508
		c0-9.664,6.704-16.785,16.185-16.785c4.484,0,8.508,1.758,11.374,4.672c0.185,0.14,0.185,0.414,0,0.556l-3.653,3.651
		c-0.185,0.137-0.462,0.137-0.648,0c-1.849-1.804-4.347-2.96-7.075-2.96c-6.196,0-9.941,4.763-9.941,10.868
		C785.973,443.379,790.411,447.402,795.914,447.402z M829.439,425.992c0,0.185-0.185,0.323-0.462,0.323h-6.15v26.219
		c0,0.185-0.14,0.369-0.417,0.369h-5.226c-0.277,0-0.417-0.183-0.417-0.369v-26.219h-6.15c-0.277,0-0.462-0.137-0.462-0.323v-4.809
		c0-0.188,0.185-0.371,0.462-0.371h18.357c0.277,0,0.462,0.183,0.462,0.371v4.809H829.439z M848.444,453.322
		c-10.774,0-16.045-8.368-16.045-16.647c0-8.277,5.271-16.601,16.045-16.601c10.589,0,15.954,8.325,15.954,16.601
		C864.398,444.951,859.033,453.322,848.444,453.322z M892.144,452.903h-5.78c-0.137,0-0.371-0.137-0.417-0.231l-5.919-12.854h-3.468
		v12.717c0,0.185-0.185,0.369-0.462,0.369h-5.271c-0.231,0-0.417-0.183-0.417-0.369v-31.63c0-0.185,0.185-0.369,0.417-0.369h10.451
		c1.849,0,10.959,0.092,10.959,9.618c0,4.949-2.728,7.537-5.965,8.693c2.035,4.578,4.207,9.016,6.242,13.548
		C892.652,452.674,892.466,452.903,892.144,452.903z M924.699,421.135L913,437.785v14.75c0,0.185-0.185,0.369-0.462,0.369h-5.226
		c-0.277,0-0.462-0.183-0.462-0.369v-14.75c-3.838-5.459-7.814-11.19-11.699-16.649c-0.231-0.277-0.046-0.6,0.371-0.6h6.427
		c0.046,0,0.277,0.046,0.323,0.137l7.677,10.959l7.629-10.959c0.046-0.094,0.277-0.137,0.323-0.137h6.427
		C924.744,420.538,924.93,420.86,924.699,421.135z"/>
</g>
<g>
	<path fill="#FFFFFF" d="M278.284,267.33v-23.878h23.878v23.878H278.284L278.284,267.33z M302.164,243.452v-71.637h47.758v23.878
		h-23.878v47.758H302.164z M302.164,338.967V267.33h23.878v47.758h23.878v23.878H302.164L302.164,338.967z"/>
	<path fill="#FFFFFF" d="M205.142,243.452v-47.758h-23.878v-23.878h47.758v71.637L205.142,243.452L205.142,243.452z
		 M181.264,338.967v-23.878h23.878V267.33h23.878v71.637H181.264z M229.021,267.33v-23.878h23.878v23.878H229.021L229.021,267.33z"
		/>
</g>
<g>
	<g>
		<path fill="#FFFFFF" d="M196.563,419.487c-2.584,0.301-3.875,0.46-6.453,0.788c-0.016-4.2-0.022-6.302-0.037-10.505
			c8.101-1.188,16.207-2.215,24.347-3.088c0.016,4.399,0.022,6.6,0.037,10.999c-2.59,0.221-3.885,0.337-6.473,0.588
			c0.055,15.468,0.11,30.937,0.161,46.405c2.586-0.046,3.879-0.068,6.465-0.107c0.016,4.399,0.022,6.6,0.037,10.999
			c-8.114-0.007-16.226-0.009-24.341-0.009c-0.016-4.2-0.022-6.302-0.037-10.505c2.584-0.063,3.876-0.094,6.46-0.15
			c-0.02-5.545-0.042-11.09-0.061-16.634c-7.687,0.451-15.37,0.966-23.048,1.541c0.013,5.234,0.029,10.468,0.042,15.701
			c2.582-0.078,3.875-0.118,6.456-0.189c0.013,4.096,0.02,6.145,0.033,10.241c-8.141,0.007-16.281,0.017-24.422,0.03
			c0-3.789,0-5.682,0-9.474c2.612-0.098,3.919-0.144,6.535-0.235c-0.017-13.781-0.033-27.561-0.048-41.341
			c-2.597,0.461-3.893,0.702-6.486,1.193c0-3.789,0-5.682,0-9.472c8.047-1.774,16.111-3.384,24.222-4.839
			c0.013,4.096,0.02,6.145,0.03,10.241c-2.576,0.375-3.862,0.571-6.432,0.976c0.013,5.058,0.026,10.114,0.039,15.172
			c7.67-0.836,15.347-1.588,23.034-2.251C196.604,430.203,196.583,424.845,196.563,419.487z"/>
		<path fill="#FFFFFF" d="M254.434,468.443c-2.88,5.343-8.471,8.513-14.431,8.55c-13.839,0.089-22.818-14.531-23.084-26.979
			c-0.281-13.154,9.317-28.247,23.489-28.792c6.021-0.231,11.26,3.406,13.999,8.641c-0.001-3.04-0.001-4.558-0.004-7.596
			c5.369-0.074,10.737-0.081,16.105-0.022c-0.004,4.562-0.004,6.844-0.009,11.409c-2.257-0.022-3.386-0.029-5.643-0.035
			c-0.001,10.211-0.004,20.423-0.007,30.636c2.251,0.007,3.377,0.012,5.63,0.022c-0.004,4.562-0.004,6.847-0.009,11.409
			c-5.345-0.017-10.69-0.033-16.033-0.048C254.436,472.759,254.436,471.322,254.434,468.443z M254.592,448.651
			c-0.009-7.206-5.437-16.06-13.571-15.636c-8.108,0.422-13.525,9.258-13.512,16.671c0.016,7.155,5.682,15.331,13.398,15.497
			C249.338,465.365,254.6,456.07,254.592,448.651z"/>
		<path fill="#FFFFFF" d="M318.386,458.586c-2.615,9.934-11.814,18.421-22.31,18.58c-14.603,0.221-23.659-15.445-23.646-28.183
			c0.013-11.925,8.393-28.562,22.695-27.577c5.118,0.353,9.792,3.206,12.857,7.319c0.007-1.989,0.009-2.985,0.016-4.974
			c3.534,0.244,5.297,0.379,8.827,0.673c-0.02,5.715-0.042,11.433-0.061,17.15c-3.831-0.218-5.745-0.319-9.578-0.499
			c-1.255-2.207-2.935-4.081-4.778-5.414c-1.898-1.375-4.121-2.166-6.388-2.256c-8.212-0.324-13.316,8.483-13.329,15.709
			c-0.013,7.384,5.413,16.105,13.496,16.2c4.611,0.055,8.912-2.791,10.773-7.06C311.533,458.372,313.816,458.437,318.386,458.586z"
			/>
		<path fill="#FFFFFF" d="M349.235,437.139c-1.841-0.203-2.76-0.301-4.602-0.493c0.012-3.719,0.017-5.578,0.029-9.297
			c7.33,0.94,14.649,1.983,21.941,3.178c-0.001,3.896-0.001,5.844-0.004,9.743c-2.168-0.281-3.25-0.417-5.421-0.68
			c-4.19,3.706-8.291,7.513-12.315,11.4c4.285,5.137,8.624,10.221,13.035,15.253c2.815,0.107,4.223,0.161,7.036,0.277
			c0,3.866,0,5.799,0,9.663c-8.141-0.052-16.281-0.105-24.422-0.153c0.013-4.157,0.02-6.234,0.03-10.391
			c1.511,0.048,2.264,0.072,3.774,0.123c-3.586-4.393-7.119-8.832-10.607-13.303c-0.016,4.323-0.029,8.646-0.043,12.971
			c1.61,0.048,2.416,0.072,4.027,0.12c-0.013,4.186-0.02,6.277-0.033,10.465c-6.716-0.037-13.428-0.076-20.144-0.11
			c0.016-4.36,0.025-6.538,0.039-10.899c2.35,0.055,3.526,0.085,5.874,0.144c0.056-15.327,0.111-30.656,0.166-45.983
			c-2.35-0.261-3.523-0.388-5.874-0.626c0.016-4.36,0.025-6.538,0.039-10.899c5.378,0.643,10.741,1.377,16.096,2.198
			c-0.043,12.941-0.089,25.879-0.133,38.82C341.496,444.751,345.327,440.908,349.235,437.139z"/>
	</g>
</g>
<g>
	<path fill="#FFFFFF" d="M210.597,385.274h-10.751c-0.783,0-2.139,0-1.878-1.564c0.261-1.619,1.564-1.619,2.401-1.619h1.149
		l4.28-25.517h-1.149c-0.783,0-2.139,0-1.878-1.567c0.261-1.617,1.564-1.617,2.401-1.617h10.751c6.94,0,10.123,7.827,8.716,16.177
		C223.224,377.967,217.432,385.274,210.597,385.274z M214.405,356.572h-5.009l-4.28,25.517h5.009c5.792,0,9.914-6.419,10.906-12.524
		C222.075,363.513,220.302,356.572,214.405,356.572z"/>
	<path fill="#FFFFFF" d="M247.699,385.274h-18.839c-0.729,0-2.192,0-1.93-1.564c0.261-1.619,1.515-1.619,2.974-1.619l3.079-18.264
		c-1.462,0-2.713,0-2.452-1.619c0.261-1.564,1.721-1.564,2.452-1.564h17.742c1.774,0,2.087,0.471,1.826,2.192l-0.418,2.556
		c-0.157,0.94-0.366,2.192-2.192,2.192c-1.774,0-1.564-1.304-1.408-2.192l0.261-1.564h-12.21l-1.201,7.098h6.472
		c0.157-0.992,0.366-2.244,2.192-2.244c1.774,0,1.564,1.304,1.41,2.192l-0.523,3.288c-0.157,0.886-0.366,2.192-2.139,2.192
		c-1.826,0-1.619-1.251-1.462-2.244h-6.472l-1.358,7.984h13.307l0.366-2.192c0.157-0.94,0.366-2.192,2.192-2.192
		c1.774,0,1.564,1.304,1.408,2.192l-0.52,3.184C249.943,384.854,249.42,385.274,247.699,385.274z"/>
	<path fill="#FFFFFF" d="M278.487,363.826l-10.019,19.778c-0.992,1.983-1.93,1.983-3.393,1.983c-1.044,0-2.349,0-2.608-1.564
		l-0.468-2.556l-2.974-17.639c-0.992,0-2.401,0-2.139-1.619c0.261-1.564,1.774-1.564,2.559-1.564h3.495c0.835,0,2.296,0,2.035,1.619
		c-0.157,0.886-1.044,1.619-2.192,1.619l3.027,17.742l8.87-17.796c-1.878,0-1.669-1.304-1.619-1.567
		c0.261-1.619,1.721-1.619,2.559-1.619h3.495c0.783,0,2.296,0,2.035,1.564C280.889,363.826,279.48,363.826,278.487,363.826z"/>
	<path fill="#FFFFFF" d="M329.402,356.572h-30.196l-4.28,25.517h2.713c0.835,0,2.087,0,1.826,1.619
		c-0.261,1.564-1.564,1.564-2.35,1.564h-9.028c-0.835,0-2.087,0-1.826-1.619c0.261-1.567,1.564-1.567,2.35-1.567h2.713l4.28-25.517
		h-64.833l0.235-1.044c0.314-1.721,0.783-2.139,2.505-2.139h97.925c1.774,0,1.983,0.52,1.721,2.139l-0.172,1.044L329.402,356.572z"
		/>
	<path fill="#FFFFFF" d="M319.924,385.689c-9.446,0-10.228-1.201-8.35-12.733c1.93-11.586,3.184-12.733,12.576-12.733
		c9.392,0,10.175,1.201,8.245,12.733C330.518,384.488,329.317,385.689,319.924,385.689z M323.578,363.408
		c-6.158,0-6.94,0.886-8.297,9.185c-1.515,9.079-0.94,9.914,5.166,9.914c6.052,0,6.942-0.886,8.454-9.914
		C330.256,364.242,329.787,363.408,323.578,363.408z"/>
</g>
<path fill="#FFFFFF" d="M263.296,138.105L263.296,138.105l130.729,27.207v153.346c-0.631,4.669-6.362,41.269-34.056,75.181
	c-1.353,1.658-2.798,3.299-4.323,4.924c8.206,1.133,16.392,2.42,24.552,3.854c30.12-39.554,34.895-80.354,35.091-82.136l0.063-0.578
	V147.967l-152.192-31.675l0,0l0.135,0.029V138.105z"/>
<path fill="#FFFFFF" d="M264.046,510.895v16.212l-0.033,0.007l1.754-0.404c17.17-3.952,33.893-10.354,48.361-18.515
	c6.589-3.717,12.66-7.762,18.077-12.027c-7.942-1.142-15.91-2.087-23.899-2.831C295.394,500.872,280.115,507.013,264.046,510.895z"
	/>
<path fill="#FFFFFF" d="M263.233,458.96L263.233,458.96c0.022-0.004,0.043-0.012,0.063-0.016l0,0
	C263.276,458.949,263.254,458.953,263.233,458.96z"/>
<path fill="#E2E4E4" d="M264.046,510.895c-0.016,0.004-0.03,0.009-0.048,0.012l0,0l0,0c-15.527-3.769-29.346-9.735-41.358-17.823
	c-7.513,0.653-15.011,1.483-22.486,2.492c3.9,3.487,8.01,6.729,12.328,9.715c0.757,0.523,1.516,1.038,2.286,1.545
	c13.82,9.131,29.683,15.782,47.459,19.874l1.107,0.255l0.664,0.153l0.017-0.004l0.033-0.007L264.046,510.895L264.046,510.895z"/>
<path fill="#E2E4E4" d="M178.132,397.813c-1.142-1.304-2.269-2.626-3.371-3.974c-23.231-28.448-31.048-59.138-33.31-70.807
	c-0.042-0.216-0.082-0.425-0.12-0.627c-0.342-1.826-0.538-3.113-0.627-3.764v-153.44l30.646-6.775l91.942-20.325v-21.786
	l-0.135-0.029l-89.863,19.863l-53.916,11.92v171.828l0.048,0.434l0.016,0.144c0.161,1.477,3.467,29.741,21.726,61.889
	c0.716,1.26,1.456,2.527,2.218,3.798c1.525,2.543,3.147,5.103,4.868,7.673c1.685,2.512,3.467,5.033,5.348,7.55
	C161.757,400.044,169.935,398.856,178.132,397.813z"/>
<g>
	<path fill="#E2E4E4" d="M24.048-338.568c0,0,0.048,2.197,1.123,4.246c1.319,2.491,3.513,3.709,6.736,3.709s5.417-1.221,6.736-3.709
		c1.074-2.05,1.123-4.246,1.123-4.294v-14.446H24.051C24.048-353.061,24.048-338.568,24.048-338.568z"/>
	<polygon fill="#E2E4E4" points="105.307,-334.37 112.187,-334.37 108.771,-344.617 	"/>
	<path fill="#E2E4E4" d="M79.336-372H-64.447v87.972L79.47-315.306l152.056,31.861v-88.552H79.336V-372z M10.138-325.145
		c0,0.195-0.196,0.391-0.489,0.391H4.087c-0.294,0-0.489-0.196-0.489-0.391v-13.518H-9.334v13.518c0,0.195-0.196,0.391-0.489,0.391
		h-5.562c-0.293,0-0.489-0.196-0.489-0.391v-33.382c0-0.196,0.196-0.391,0.489-0.391h5.562c0.294,0,0.489,0.195,0.489,0.391v13.47
		H3.598v-13.47c0-0.196,0.196-0.391,0.489-0.391h5.562c0.293,0,0.489,0.195,0.489,0.391V-325.145z M46.254-338.568
		c0,0.342-0.05,3.661-1.708,6.979c-2.39,4.685-6.834,7.319-12.64,7.319c-5.807,0-10.297-2.586-12.64-7.319
		c-1.661-3.318-1.708-6.636-1.708-6.979v-19.961c0-0.196,0.196-0.391,0.44-0.391h27.769c0.294,0,0.489,0.195,0.489,0.391v19.961
		H46.254z M90.81-325.145c0,0.195-0.195,0.391-0.489,0.391h-5.562c-0.293,0-0.489-0.196-0.489-0.391v-18.741l-8.687,17.52
		c-0.048,0.097-0.294,0.244-0.391,0.244h-5.271c-0.146,0-0.391-0.146-0.44-0.244l-9.271-17.959v19.179
		c0,0.195-0.196,0.391-0.489,0.391h-5.613c-0.293,0-0.438-0.196-0.438-0.391v-33.429c0-0.196,0.146-0.391,0.438-0.391h5.711
		c0.146,0,0.391,0.146,0.44,0.244l12.251,25.083l11.711-25.083c0.05-0.097,0.294-0.244,0.44-0.244h5.66
		c0.294,0,0.489,0.196,0.489,0.391L90.81-325.145L90.81-325.145L90.81-325.145z M122.143-324.755h-6.052
		c-0.146,0-0.342-0.098-0.391-0.244l-1.417-3.612h-11.077l-1.319,3.612c-0.048,0.146-0.244,0.244-0.44,0.244h-6.003
		c-0.391,0-0.587-0.244-0.44-0.536l13.324-34.358c0.146-0.342,0.732-0.342,0.878,0l13.322,34.358
		C122.679-324.998,122.485-324.755,122.143-324.755z M154.941-325.145c0,0.195-0.196,0.391-0.489,0.391h-5.613
		c-0.098,0-0.342-0.048-0.391-0.146l-15.714-22.498v22.255c0,0.195-0.196,0.391-0.489,0.391h-5.613c-0.244,0-0.44-0.196-0.44-0.391
		v-33.382c0-0.196,0.196-0.391,0.44-0.391h5.66c0.098,0,0.342,0.048,0.391,0.146l15.762,22.498v-22.254
		c0-0.196,0.196-0.391,0.489-0.391h5.515c0.293,0,0.489,0.195,0.489,0.391L154.941-325.145L154.941-325.145z M172.069-324.269
		c-6.051-0.146-10.834-3.661-10.932-10.101c0-0.196,0.196-0.391,0.489-0.391h5.562c0.244,0,0.489,0.196,0.489,0.391
		c0.098,2.488,2.146,3.756,4.392,3.756c2.342,0,4.392-1.562,4.392-3.902c0-2.586-2.393-4.148-4.392-4.246
		c-0.293,0-2.684,0-5.222-1.17c-3.661-1.708-5.709-4.783-5.709-8.882c0-6.589,5.319-10.59,10.932-10.59
		c6.003,0,10.688,4.05,10.786,10.006c0,0.146-0.196,0.342-0.489,0.342h-5.515c-0.244,0-0.489-0.196-0.489-0.342
		c-0.098-2.488-2.001-3.661-4.294-3.661c-2.39,0-4.392,1.417-4.392,4.246c0,2.538,2.146,3.857,4.392,3.857
		c0.244,0,2.684,0,5.173,1.17c3.71,1.708,5.711,5.173,5.711,9.274C182.953-327.927,177.682-324.269,172.069-324.269z"/>
</g>
<g>
	<polygon fill="#E2E4E4" points="358.423,76.564 364.931,76.564 361.7,66.867 	"/>
	<polygon fill="#E2E4E4" points="219.119,76.564 225.63,76.564 222.398,66.867 	"/>
	<path fill="#E2E4E4" d="M245.069,59.065v20.824c3.879,0.185,12.142-0.554,12.142-10.481
		C257.212,60.867,252.041,58.697,245.069,59.065z"/>
	<polygon fill="#E2E4E4" points="160.712,76.564 167.223,76.564 163.991,66.867 	"/>
	<path fill="#E2E4E4" d="M262.845,39.407H119.064v87.972L262.981,96.1l152.056,31.86V39.408H262.845V39.407L262.845,39.407z
		 M176.642,85.66h-5.727c-0.137,0-0.323-0.091-0.368-0.231l-1.341-3.416h-10.48l-1.247,3.416c-0.046,0.137-0.231,0.231-0.417,0.231
		h-5.678c-0.368,0-0.553-0.231-0.417-0.507l12.605-32.505c0.137-0.323,0.693-0.323,0.83,0l12.605,32.505
		C177.15,85.43,176.964,85.66,176.642,85.66z M195.618,80.166c2.724,0,5.216-1.108,7.064-2.955c0.183-0.137,0.461-0.137,0.647,0
		l3.648,3.693c0.186,0.137,0.186,0.417,0,0.554c-2.863,2.863-6.878,4.663-11.357,4.663c-8.863,0-16.161-6.417-16.161-16.484
		c0-9.65,6.695-16.761,16.161-16.761c4.477,0,8.496,1.754,11.357,4.663c0.186,0.137,0.186,0.414,0,0.554l-3.648,3.648
		c-0.186,0.14-0.461,0.14-0.647,0c-1.848-1.8-4.34-2.955-7.064-2.955c-6.188,0-9.927,4.757-9.927,10.851
		C185.691,76.148,190.122,80.166,195.618,80.166z M235.05,85.66h-5.727c-0.137,0-0.323-0.091-0.368-0.231l-1.34-3.419h-10.481
		l-1.247,3.416c-0.046,0.137-0.231,0.231-0.417,0.231h-5.678c-0.368,0-0.553-0.231-0.417-0.507l12.605-32.505
		c0.137-0.323,0.693-0.323,0.83,0l12.605,32.505C235.557,85.43,235.373,85.66,235.05,85.66z M244.606,85.66h-5.216
		c-0.277,0-0.461-0.184-0.461-0.368V53.711c0-0.185,0.186-0.368,0.461-0.368h5.216c7.802,0,18.746,1.845,18.746,16.067
		C263.352,83.121,252.595,85.66,244.606,85.66z M291.286,58.834c0,0.184-0.185,0.368-0.461,0.368h-15.237v7.481h12.605
		c0.277,0,0.417,0.185,0.417,0.37v5.031c0,0.185-0.14,0.37-0.417,0.37h-12.605v7.387h15.237c0.277,0,0.461,0.185,0.461,0.368v5.08
		c0,0.184-0.185,0.368-0.461,0.368H269.91c-0.231,0-0.417-0.185-0.417-0.368V53.707c0-0.184,0.186-0.368,0.417-0.368h20.915
		c0.277,0,0.461,0.184,0.461,0.368V58.834z M331.548,85.29c0,0.185-0.185,0.368-0.461,0.368h-5.218
		c-0.277,0-0.461-0.185-0.461-0.368V67.098l-8.125,17.082c-0.046,0.091-0.277,0.231-0.417,0.231h-4.94
		c-0.137,0-0.323-0.137-0.368-0.231l-8.726-17.453v18.56c0,0.185-0.186,0.368-0.461,0.368h-5.218c-0.277,0-0.461-0.185-0.461-0.368
		V53.706c0-0.184,0.184-0.368,0.461-0.368h5.31c0.137,0,0.368,0.137,0.417,0.231l11.497,23.779l10.988-23.779
		c0.046-0.091,0.277-0.231,0.417-0.231h5.31c0.277,0,0.461,0.184,0.461,0.368V85.29H331.548z M345.079,85.29
		c0,0.185-0.186,0.368-0.461,0.368h-5.216c-0.277,0-0.461-0.185-0.461-0.368V53.708c0-0.184,0.186-0.368,0.461-0.368h5.216
		c0.277,0,0.461,0.184,0.461,0.368V85.29z M374.351,85.66h-5.727c-0.137,0-0.323-0.091-0.368-0.231l-1.341-3.416h-10.48
		l-1.247,3.416c-0.046,0.137-0.231,0.231-0.417,0.231h-5.678c-0.368,0-0.553-0.231-0.417-0.507l12.605-32.505
		c0.137-0.323,0.693-0.323,0.83,0l12.605,32.505C374.858,85.43,374.674,85.66,374.351,85.66z"/>
</g>
<g>
	<path fill="#E2E4E4" d="M-263.749,72.297h-5.055v7.949h5.055c2.159,0,5.545-0.639,5.545-3.876
		C-258.202,72.297-262.669,72.297-263.749,72.297z"/>
	<path fill="#E2E4E4" d="M-258.695,62.237c0-4.072-5.055-3.777-5.055-3.777h-5.055v7.851h5.055
		C-262.816,66.309-258.695,65.968-258.695,62.237z"/>
	<polygon fill="#E2E4E4" points="-296.334,76.862 -289.416,76.862 -292.85,66.556 	"/>
	<path fill="#E2E4E4" d="M-280.762,39.407h-143.782v87.972L-280.628,96.1l152.056,31.86V39.408L-280.762,39.407L-280.762,39.407z
		 M-309.094,86.136c0,0.196-0.196,0.392-0.49,0.392h-17.862c-0.294,0-0.49-0.195-0.49-0.392V52.57c0-0.196,0.196-0.392,0.49-0.392
		h5.545c0.294,0,0.49,0.196,0.49,0.392v27.629h11.827c0.294,0,0.49,0.195,0.49,0.392V86.136z M-279.404,86.528h-6.086
		c-0.148,0-0.344-0.098-0.392-0.244l-1.423-3.629h-11.139l-1.325,3.629c-0.048,0.146-0.244,0.244-0.443,0.244h-6.035
		c-0.392,0-0.588-0.244-0.443-0.541l13.398-34.546c0.146-0.344,0.737-0.344,0.882,0l13.396,34.546
		C-278.865,86.284-279.06,86.528-279.404,86.528z M-251.728,76.566c0,9.522-9.668,9.962-12.023,9.962h-11.09
		c-0.246,0-0.443-0.195-0.443-0.392V52.57c0-0.196,0.196-0.392,0.443-0.392h11.09c0,0,11.58-0.294,11.58,9.717
		c0,3.924-2.159,6.133-4.711,7.162C-251.532,70.925-251.728,76.566-251.728,76.566z M-236.022,87.021
		c-6.035-0.146-10.796-3.632-10.894-10.109c0-0.196,0.196-0.344,0.49-0.344h5.545c0.246,0,0.49,0.148,0.49,0.344
		c0.098,2.551,2.109,3.778,4.366,3.778c2.305,0,4.366-1.47,4.366-3.876c0-2.551-2.406-4.17-4.366-4.268c-0.294,0-2.7,0-5.204-1.129
		c-3.629-1.717-5.692-5.055-5.692-9.126c0-6.576,5.25-10.55,10.894-10.55c5.985,0,10.648,4.024,10.747,9.913
		c0,0.196-0.196,0.392-0.49,0.392h-5.495c-0.246,0-0.49-0.196-0.49-0.392c-0.098-2.453-2.011-3.629-4.268-3.629
		c-2.406,0-4.366,1.372-4.366,4.271c0,2.501,2.109,4.121,4.366,4.121c0.246,0,2.649,0,5.103,1.129
		c3.73,1.72,5.741,5.251,5.741,9.275C-225.177,83.436-230.428,87.021-236.022,87.021z"/>
</g>
<g>
	<path fill="#E2E4E4" d="M-310.283,285.174h-4.713v7.485h4.713c1.341,0,4.804-0.185,4.804-3.742S-309.312,285.174-310.283,285.174z"
		/>
	<polygon fill="#E2E4E4" points="-430.493,302.544 -423.98,302.544 -427.214,292.843 	"/>
	<path fill="#E2E4E4" d="M-343.085,284.712c-6.515,0-9.748,5.405-9.748,10.809c0,5.358,3.233,10.715,9.748,10.715
		c6.422,0,9.701-5.358,9.701-10.715C-333.383,290.118-336.664,284.712-343.085,284.712z"/>
	<path fill="#E2E4E4" d="M-369.528,264.835h-143.782v87.972l143.917-31.279l152.055,31.861v-88.552h-152.189V264.835z
		 M-442.043,285.174c0,0.187-0.186,0.37-0.461,0.37h-15.247v7.115h12.612c0.277,0,0.417,0.185,0.417,0.37v5.175
		c0,0.183-0.14,0.368-0.417,0.368h-12.612v12.705c0,0.184-0.137,0.368-0.417,0.368h-5.267c-0.231,0-0.414-0.183-0.414-0.368v-31.322
		c0-0.187,0.184-0.37,0.414-0.37h20.928c0.277,0,0.461,0.183,0.461,0.37v5.219H-442.043z M-414.554,311.644h-5.728
		c-0.137,0-0.323-0.091-0.368-0.231l-1.341-3.419h-10.488l-1.248,3.419c-0.046,0.137-0.231,0.231-0.417,0.231h-5.682
		c-0.368,0-0.553-0.231-0.417-0.507l12.612-32.523c0.137-0.323,0.693-0.323,0.833,0l12.612,32.523
		C-414.049,311.414-414.232,311.644-414.554,311.644z M-395.567,306.148c2.726,0,5.221-1.108,7.069-2.956
		c0.185-0.14,0.461-0.14,0.647,0l3.65,3.696c0.186,0.137,0.186,0.417,0,0.555c-2.863,2.866-6.883,4.667-11.363,4.667
		c-8.87,0-16.17-6.422-16.17-16.493c0-9.655,6.698-16.769,16.17-16.769c4.48,0,8.5,1.756,11.363,4.667
		c0.186,0.14,0.186,0.414,0,0.555l-3.65,3.648c-0.184,0.137-0.461,0.137-0.647,0c-1.848-1.802-4.343-2.956-7.069-2.956
		c-6.191,0-9.931,4.758-9.931,10.858C-405.499,302.127-401.065,306.148-395.567,306.148z M-362.073,284.757
		c0,0.185-0.186,0.323-0.461,0.323h-6.145v26.195c0,0.185-0.14,0.368-0.417,0.368h-5.221c-0.277,0-0.417-0.183-0.417-0.368V285.08
		h-6.145c-0.277,0-0.461-0.137-0.461-0.323v-4.804c0-0.187,0.186-0.37,0.461-0.37h18.341c0.277,0,0.461,0.183,0.461,0.37
		L-362.073,284.757L-362.073,284.757z M-343.085,312.062c-10.764,0-16.03-8.36-16.03-16.631c0-8.269,5.267-16.586,16.03-16.586
		c10.579,0,15.939,8.317,15.939,16.586C-327.146,303.7-332.507,312.062-343.085,312.062z M-299.427,311.644h-5.774
		c-0.137,0-0.37-0.137-0.417-0.231l-5.914-12.843h-3.465v12.705c0,0.185-0.184,0.368-0.461,0.368h-5.267
		c-0.231,0-0.417-0.183-0.417-0.368v-31.6c0-0.185,0.185-0.368,0.417-0.368h10.442c1.848,0,10.949,0.091,10.949,9.608
		c0,4.944-2.726,7.53-5.959,8.685c2.032,4.574,4.203,9.007,6.236,13.535C-298.919,311.414-299.104,311.644-299.427,311.644z
		 M-266.901,279.905l-11.688,16.634v14.736c0,0.185-0.186,0.368-0.461,0.368h-5.221c-0.277,0-0.461-0.183-0.461-0.368v-14.736
		c-3.836-5.454-7.807-11.18-11.688-16.634c-0.231-0.277-0.046-0.6,0.37-0.6h6.422c0.046,0,0.277,0.046,0.323,0.137l7.67,10.949
		l7.622-10.949c0.046-0.094,0.277-0.137,0.323-0.137h6.422C-266.856,279.308-266.67,279.63-266.901,279.905z"/>
</g>
</svg>
